<mxfile host="app.diagrams.net" agent="Mozilla/5.0 (Macintosh; Intel Mac OS X 10_15_7) AppleWebKit/537.36 (KHTML, like Gecko) Chrome/133.0.0.0 Safari/537.36" version="26.1.0">
  <diagram name="第 1 页" id="7yQkOY_Xx4HgCJnLg3gL">
    <mxGraphModel dx="1837" dy="1017" grid="1" gridSize="10" guides="1" tooltips="1" connect="1" arrows="1" fold="1" page="1" pageScale="1" pageWidth="827" pageHeight="1169" math="0" shadow="0">
      <root>
        <mxCell id="0" />
        <mxCell id="1" parent="0" />
        <mxCell id="jJGmeJIBvxZQ7ASbRpEn-1" value="&lt;b style=&quot;text-align: start;&quot;&gt;&lt;span style=&quot;line-height: 32px; font-family: FangSong;&quot;&gt;&lt;font style=&quot;font-size: 16px;&quot;&gt;STK11&lt;span style=&quot;&quot; lang=&quot;ZH-CN&quot;&gt;调控低氧糖代谢在胰腺癌增殖、迁移、侵袭中的作用及机制研究&lt;/span&gt;&lt;/font&gt;&lt;/span&gt;&lt;/b&gt;&lt;span style=&quot;font-size: medium; text-align: start;&quot;&gt;&lt;/span&gt;" style="rounded=0;whiteSpace=wrap;html=1;" vertex="1" parent="1">
          <mxGeometry x="110" y="100" width="570" height="40" as="geometry" />
        </mxCell>
        <mxCell id="jJGmeJIBvxZQ7ASbRpEn-5" value="增殖实验&lt;br&gt;（CCK8、EdU、克隆形成）" style="rounded=0;whiteSpace=wrap;html=1;" vertex="1" parent="1">
          <mxGeometry x="435" y="160" width="240" height="40" as="geometry" />
        </mxCell>
        <mxCell id="jJGmeJIBvxZQ7ASbRpEn-29" style="edgeStyle=orthogonalEdgeStyle;rounded=0;orthogonalLoop=1;jettySize=auto;html=1;exitX=1;exitY=0.5;exitDx=0;exitDy=0;entryX=0;entryY=0.5;entryDx=0;entryDy=0;" edge="1" parent="1" source="jJGmeJIBvxZQ7ASbRpEn-7" target="jJGmeJIBvxZQ7ASbRpEn-8">
          <mxGeometry relative="1" as="geometry" />
        </mxCell>
        <mxCell id="jJGmeJIBvxZQ7ASbRpEn-30" style="edgeStyle=orthogonalEdgeStyle;rounded=0;orthogonalLoop=1;jettySize=auto;html=1;exitX=1;exitY=0.5;exitDx=0;exitDy=0;entryX=0;entryY=0.5;entryDx=0;entryDy=0;" edge="1" parent="1" source="jJGmeJIBvxZQ7ASbRpEn-7" target="jJGmeJIBvxZQ7ASbRpEn-9">
          <mxGeometry relative="1" as="geometry" />
        </mxCell>
        <mxCell id="jJGmeJIBvxZQ7ASbRpEn-7" value="细胞实验" style="rounded=0;whiteSpace=wrap;html=1;" vertex="1" parent="1">
          <mxGeometry x="120" y="270" width="120" height="40" as="geometry" />
        </mxCell>
        <mxCell id="jJGmeJIBvxZQ7ASbRpEn-8" value="STK11敲除" style="rounded=0;whiteSpace=wrap;html=1;" vertex="1" parent="1">
          <mxGeometry x="280" y="230" width="120" height="40" as="geometry" />
        </mxCell>
        <mxCell id="jJGmeJIBvxZQ7ASbRpEn-9" value="STK11过表达" style="rounded=0;whiteSpace=wrap;html=1;" vertex="1" parent="1">
          <mxGeometry x="280" y="310" width="120" height="40" as="geometry" />
        </mxCell>
        <mxCell id="jJGmeJIBvxZQ7ASbRpEn-10" value="&lt;p class=&quot;p1&quot;&gt;&lt;span&gt;细胞周期和凋亡检测&lt;br&gt;&lt;/span&gt;&lt;span class=&quot;s1&quot;&gt;（流式细胞术）&lt;/span&gt;&lt;/p&gt;" style="rounded=0;whiteSpace=wrap;html=1;fontStyle=0" vertex="1" parent="1">
          <mxGeometry x="435" y="220" width="240" height="40" as="geometry" />
        </mxCell>
        <mxCell id="jJGmeJIBvxZQ7ASbRpEn-11" value="&lt;p class=&quot;p1&quot;&gt;&lt;span class=&quot;s1&quot;&gt;&lt;span&gt;迁移与侵袭能力检测&lt;br&gt;&lt;/span&gt;&lt;/span&gt;（划痕实验、Transwell实验）&lt;/p&gt;" style="rounded=0;whiteSpace=wrap;html=1;fontStyle=0" vertex="1" parent="1">
          <mxGeometry x="435" y="280" width="240" height="40" as="geometry" />
        </mxCell>
        <mxCell id="jJGmeJIBvxZQ7ASbRpEn-42" style="edgeStyle=orthogonalEdgeStyle;rounded=0;orthogonalLoop=1;jettySize=auto;html=1;exitX=1;exitY=0.5;exitDx=0;exitDy=0;entryX=0;entryY=0.5;entryDx=0;entryDy=0;" edge="1" parent="1" source="jJGmeJIBvxZQ7ASbRpEn-12" target="jJGmeJIBvxZQ7ASbRpEn-14">
          <mxGeometry relative="1" as="geometry" />
        </mxCell>
        <mxCell id="jJGmeJIBvxZQ7ASbRpEn-43" style="edgeStyle=orthogonalEdgeStyle;rounded=0;orthogonalLoop=1;jettySize=auto;html=1;exitX=1;exitY=0.5;exitDx=0;exitDy=0;entryX=0;entryY=0.5;entryDx=0;entryDy=0;" edge="1" parent="1" source="jJGmeJIBvxZQ7ASbRpEn-12" target="jJGmeJIBvxZQ7ASbRpEn-13">
          <mxGeometry relative="1" as="geometry" />
        </mxCell>
        <mxCell id="jJGmeJIBvxZQ7ASbRpEn-12" value="机制研究" style="rounded=0;whiteSpace=wrap;html=1;" vertex="1" parent="1">
          <mxGeometry x="120" y="490" width="120" height="40" as="geometry" />
        </mxCell>
        <mxCell id="jJGmeJIBvxZQ7ASbRpEn-13" value="HIF1a抑制" style="rounded=0;whiteSpace=wrap;html=1;" vertex="1" parent="1">
          <mxGeometry x="280" y="450" width="120" height="40" as="geometry" />
        </mxCell>
        <mxCell id="jJGmeJIBvxZQ7ASbRpEn-14" value="HIF1a过表达" style="rounded=0;whiteSpace=wrap;html=1;" vertex="1" parent="1">
          <mxGeometry x="280" y="530" width="120" height="40" as="geometry" />
        </mxCell>
        <mxCell id="jJGmeJIBvxZQ7ASbRpEn-15" value="&lt;p class=&quot;p1&quot;&gt;&lt;span class=&quot;s1&quot;&gt;&lt;span&gt;糖酵解功能评估&lt;/span&gt;&lt;/span&gt;（ECAR测试）&lt;/p&gt;" style="rounded=0;whiteSpace=wrap;html=1;fontStyle=0" vertex="1" parent="1">
          <mxGeometry x="435" y="400" width="240" height="40" as="geometry" />
        </mxCell>
        <mxCell id="jJGmeJIBvxZQ7ASbRpEn-16" value="&lt;p class=&quot;p1&quot;&gt;&lt;span class=&quot;s1&quot;&gt;&lt;span&gt;RT-PCR &amp;amp; Western blot&lt;br&gt;&lt;/span&gt;&lt;/span&gt;检测低氧糖代谢相关基因&lt;br&gt;&lt;/p&gt;" style="rounded=0;whiteSpace=wrap;html=1;fontStyle=0" vertex="1" parent="1">
          <mxGeometry x="435" y="460" width="240" height="40" as="geometry" />
        </mxCell>
        <mxCell id="jJGmeJIBvxZQ7ASbRpEn-17" value="&lt;p class=&quot;p1&quot;&gt;&lt;span class=&quot;s1&quot;&gt;&lt;span&gt;免疫共沉淀（Co-IP）&lt;/span&gt;&lt;/span&gt; &lt;br&gt;STK11与HIF1a的调控作用&lt;/p&gt;" style="rounded=0;whiteSpace=wrap;html=1;fontStyle=0" vertex="1" parent="1">
          <mxGeometry x="435" y="520" width="240" height="40" as="geometry" />
        </mxCell>
        <mxCell id="jJGmeJIBvxZQ7ASbRpEn-18" value="&lt;p class=&quot;p1&quot;&gt;&lt;span&gt;RNA-seq富集分析&lt;/span&gt;&lt;/p&gt;" style="rounded=0;whiteSpace=wrap;html=1;fontStyle=0" vertex="1" parent="1">
          <mxGeometry x="435" y="340" width="240" height="40" as="geometry" />
        </mxCell>
        <mxCell id="jJGmeJIBvxZQ7ASbRpEn-19" value="&lt;p class=&quot;p1&quot;&gt;&lt;span&gt;回复实验&lt;/span&gt;&lt;br&gt;&lt;/p&gt;" style="rounded=0;whiteSpace=wrap;html=1;fontStyle=0" vertex="1" parent="1">
          <mxGeometry x="435" y="580" width="240" height="40" as="geometry" />
        </mxCell>
        <mxCell id="jJGmeJIBvxZQ7ASbRpEn-44" style="edgeStyle=orthogonalEdgeStyle;rounded=0;orthogonalLoop=1;jettySize=auto;html=1;exitX=1;exitY=0.5;exitDx=0;exitDy=0;entryX=0;entryY=0.5;entryDx=0;entryDy=0;" edge="1" parent="1" source="jJGmeJIBvxZQ7ASbRpEn-20" target="jJGmeJIBvxZQ7ASbRpEn-22">
          <mxGeometry relative="1" as="geometry" />
        </mxCell>
        <mxCell id="jJGmeJIBvxZQ7ASbRpEn-45" style="edgeStyle=orthogonalEdgeStyle;rounded=0;orthogonalLoop=1;jettySize=auto;html=1;exitX=1;exitY=0.5;exitDx=0;exitDy=0;entryX=0;entryY=0.5;entryDx=0;entryDy=0;" edge="1" parent="1" source="jJGmeJIBvxZQ7ASbRpEn-20" target="jJGmeJIBvxZQ7ASbRpEn-23">
          <mxGeometry relative="1" as="geometry" />
        </mxCell>
        <mxCell id="jJGmeJIBvxZQ7ASbRpEn-20" value="动物实验" style="rounded=0;whiteSpace=wrap;html=1;" vertex="1" parent="1">
          <mxGeometry x="120" y="700" width="120" height="40" as="geometry" />
        </mxCell>
        <mxCell id="jJGmeJIBvxZQ7ASbRpEn-22" value="STK11敲除" style="rounded=0;whiteSpace=wrap;html=1;" vertex="1" parent="1">
          <mxGeometry x="280" y="660" width="120" height="40" as="geometry" />
        </mxCell>
        <mxCell id="jJGmeJIBvxZQ7ASbRpEn-23" value="STK11过表达" style="rounded=0;whiteSpace=wrap;html=1;" vertex="1" parent="1">
          <mxGeometry x="280" y="740" width="120" height="40" as="geometry" />
        </mxCell>
        <mxCell id="jJGmeJIBvxZQ7ASbRpEn-24" value="&lt;p class=&quot;p1&quot;&gt;&lt;span class=&quot;s1&quot;&gt;&lt;span&gt;构建裸鼠皮下肿瘤模型&lt;/span&gt;&lt;/span&gt;&lt;br&gt;&lt;/p&gt;" style="rounded=0;whiteSpace=wrap;html=1;fontStyle=0" vertex="1" parent="1">
          <mxGeometry x="435" y="640" width="240" height="40" as="geometry" />
        </mxCell>
        <mxCell id="jJGmeJIBvxZQ7ASbRpEn-25" value="&lt;p class=&quot;p1&quot;&gt;&lt;span class=&quot;s1&quot;&gt;&lt;span&gt;监测肿瘤生长&lt;/span&gt;&lt;/span&gt;&lt;/p&gt;" style="rounded=0;whiteSpace=wrap;html=1;fontStyle=0" vertex="1" parent="1">
          <mxGeometry x="435" y="700" width="240" height="40" as="geometry" />
        </mxCell>
        <mxCell id="jJGmeJIBvxZQ7ASbRpEn-26" value="&lt;p class=&quot;p1&quot;&gt;&lt;span class=&quot;s1&quot;&gt;&lt;span&gt;免疫组化检测&lt;/span&gt;&lt;/span&gt;&lt;br&gt;糖代谢相关蛋白表达水平。&lt;/p&gt;" style="rounded=0;whiteSpace=wrap;html=1;fontStyle=0" vertex="1" parent="1">
          <mxGeometry x="435" y="760" width="240" height="40" as="geometry" />
        </mxCell>
        <mxCell id="jJGmeJIBvxZQ7ASbRpEn-35" value="" style="triangle;whiteSpace=wrap;html=1;" vertex="1" parent="1">
          <mxGeometry x="400" y="250" width="20" height="80" as="geometry" />
        </mxCell>
        <mxCell id="jJGmeJIBvxZQ7ASbRpEn-36" value="" style="triangle;whiteSpace=wrap;html=1;rotation=-180;" vertex="1" parent="1">
          <mxGeometry x="420" y="170" width="15" height="240" as="geometry" />
        </mxCell>
        <mxCell id="jJGmeJIBvxZQ7ASbRpEn-37" value="" style="triangle;whiteSpace=wrap;html=1;fontStyle=0" vertex="1" parent="1">
          <mxGeometry x="400" y="470" width="20" height="80" as="geometry" />
        </mxCell>
        <mxCell id="jJGmeJIBvxZQ7ASbRpEn-38" value="" style="triangle;whiteSpace=wrap;html=1;rotation=-180;fontStyle=0" vertex="1" parent="1">
          <mxGeometry x="420" y="400" width="15" height="220" as="geometry" />
        </mxCell>
        <mxCell id="jJGmeJIBvxZQ7ASbRpEn-39" value="" style="triangle;whiteSpace=wrap;html=1;fontStyle=0" vertex="1" parent="1">
          <mxGeometry x="400" y="680" width="20" height="80" as="geometry" />
        </mxCell>
        <mxCell id="jJGmeJIBvxZQ7ASbRpEn-40" value="" style="triangle;whiteSpace=wrap;html=1;rotation=-180;fontStyle=0" vertex="1" parent="1">
          <mxGeometry x="420" y="640" width="15" height="160" as="geometry" />
        </mxCell>
      </root>
    </mxGraphModel>
  </diagram>
</mxfile>
